<svg width="36" height="36" viewBox="0 0 36 36" fill="none" xmlns="http://www.w3.org/2000/svg">
<path d="M0 18C0 8.05888 8.05888 0 18 0C27.9411 0 36 8.05888 36 18C36 27.9411 27.9411 36 18 36C8.05888 36 0 27.9411 0 18Z" fill="#FF3E1D"/>
<path fill-rule="evenodd" clip-rule="evenodd" d="M17.1666 13.8333C15.3257 13.8333 13.8333 15.3257 13.8333 17.1666C13.8333 19.0075 15.3257 20.5 17.1666 20.5C19.0075 20.5 20.5 19.0075 20.5 17.1666C20.5 15.3257 19.0075 13.8333 17.1666 13.8333ZM12.1666 17.1666C12.1666 14.4052 14.4052 12.1666 17.1666 12.1666C19.928 12.1666 22.1666 14.4052 22.1666 17.1666C22.1666 18.2465 21.8243 19.2464 21.2422 20.0637L24.4225 23.244C24.748 23.5695 24.748 24.0971 24.4225 24.4225C24.0971 24.748 23.5695 24.748 23.244 24.4225L20.0637 21.2422C19.2464 21.8243 18.2465 22.1666 17.1666 22.1666C14.4052 22.1666 12.1666 19.928 12.1666 17.1666Z" fill="white"/>
</svg>
